PathFileType	4	(X/Y/Z)	/Users/itak/Documents/Research/Walk-IL/dataset/trc/00088_00006.trc
DataRate	CameraRate	NumFrames	NumMarkers	Units	OrigDataRate	OrigDataStartFrame	OrigNumFrames
100.000000	100.000000	4	53	mm	100.000000	254	508
Frame#	Time	RPSI			LPSI			L3			STRN			T10			C7			CLAV			RBAK			LBAK			LSHO			LUPA			LAEL			LAOL			LWTS			LWPS			LFRA			LIFD			LHPS			LHTS			RSHO			RUPA			RAEL			RAOL			RWTS			RWPS			RFRA			RIFD			RHTS			RHPS			RBHD			LFHD			RFHD			LBHD			LHIP			RHIP			RASI			LASI			LKNE			LTHI			LANK			LTIP			LTOE			LMT1			LMT5			LHEE			RKNE			RTHI			RANK			RTIP			RTOE			RMT1			RMT5			RHEE			
		X1	Y1	Z1	X2	Y2	Z2	X3	Y3	Z3	X4	Y4	Z4	X5	Y5	Z5	X6	Y6	Z6	X7	Y7	Z7	X8	Y8	Z8	X9	Y9	Z9	X10	Y10	Z10	X11	Y11	Z11	X12	Y12	Z12	X13	Y13	Z13	X14	Y14	Z14	X15	Y15	Z15	X16	Y16	Z16	X17	Y17	Z17	X18	Y18	Z18	X19	Y19	Z19	X20	Y20	Z20	X21	Y21	Z21	X22	Y22	Z22	X23	Y23	Z23	X24	Y24	Z24	X25	Y25	Z25	X26	Y26	Z26	X27	Y27	Z27	X28	Y28	Z28	X29	Y29	Z29	X30	Y30	Z30	X31	Y31	Z31	X32	Y32	Z32	X33	Y33	Z33	X34	Y34	Z34	X35	Y35	Z35	X36	Y36	Z36	X37	Y37	Z37	X38	Y38	Z38	X39	Y39	Z39	X40	Y40	Z40	X41	Y41	Z41	X42	Y42	Z42	X43	Y43	Z43	X44	Y44	Z44	X45	Y45	Z45	X46	Y46	Z46	X47	Y47	Z47	X48	Y48	Z48	X49	Y49	Z49	X50	Y50	Z50	X51	Y51	Z51	X52	Y52	Z52	X53	Y53	Z53	

255	2.54	-753.4725952148438	1016.559692382812	87.90287017822266	-667.6791381835938	999.7432861328125	-65.79910278320312	-708.2317504882812	1070.989135742188	10.79645442962646	-483.6966552734375	1265.96826171875	140.9382171630859	-718.8546752929688	1204.8251953125	8.253279685974121	-663.53955078125	1469.36181640625	40.46440887451172	-507.6575012207031	1380.818115234375	124.9554977416992	-756.9844970703125	1332.5791015625	73.94631958007812	-638.6658935546875	1432.697143554688	-57.79923629760742	-516.5606079101562	1437.416748046875	-77.33412170410156	-511.1697387695312	1317.366943359375	-165.1536102294922	-506.2109985351562	1107.168823242188	-201.3182525634766	-594.6182861328125	1093.531127929688	-141.8450469970703	-454.1270751953125	859.0855102539062	-132.1993255615234	-491.6102294921875	855.0358276367188	-207.1580047607422	-491.8921508789062	997.4227294921875	-211.5871429443359	-455.8157348632812	671.6184692382812	-121.8630981445312	-466.1560668945312	772.1361083984375	-198.6047210693359	-435.7536315917969	776.656494140625	-134.0828399658203	-694.3106079101562	1432.429931640625	222.3055572509766	-738.4557495117188	1365.105712890625	272.9088134765625	-778.9866333007812	1099.10986328125	293.0697631835938	-715.5866088867188	1076.64306640625	219.2510986328125	-589.8649291992188	885.2770385742188	347.9052124023438	-668.6436767578125	848.95654296875	356.2130126953125	-760.7896728515625	1017.998657226562	311.1493225097656	-526.8963623046875	707.4425659179688	351.5535583496094	-542.8580932617188	794.9657592773438	366.2570495605469	-616.76708984375	772.7587890625	383.9973449707031	-668.0671997070312	1628.27734375	88.55152130126953	-461.7012634277344	1690.4609375	139.8681030273438	-562.4132690429688	1674.78076171875	214.4603271484375	-566.1311645507812	1651.511474609375	0.2391061335802078	-527.7765502929688	942.9181518554688	-86.39550018310547	-739.4917602539062	946.0068359375	187.7408294677734	-622.8987426757812	960.5775756835938	237.3179473876953	-467.2383728027344	955.7564697265625	20.44410705566406	-353.3401184082031	529.7567749023438	82.70111846923828	-397.6085815429688	646.35302734375	-3.148912668228149	-279.3514099121094	56.22456359863281	63.65460968017578	-311.2987670898438	287.4705810546875	58.8414306640625	-171.0720825195312	122.7591171264648	220.6727142333984	-238.1320190429688	101.5948715209961	217.6154022216797	-188.5398864746094	78.30809783935547	120.3340835571289	-369.9150695800781	40.20930862426758	71.52337646484375	-677.1568603515625	500.5614318847656	140.9118194580078	-674.3507080078125	763.1009521484375	215.64013671875	-776.0595703125	40.52190399169922	13.15325546264648	-699.938720703125	378.7964782714844	112.8328475952148	-557.1148681640625	40.96041488647461	41.52188110351562	-605.2710571289062	49.66024017333984	-12.12222099304199	-664.1680908203125	44.35278701782227	67.14718627929688	-802.8711547851562	48.20890808105469	-54.78868865966797	
256	2.55	-746.014892578125	1014.785522460938	90.30367279052734	-658.4215698242188	997.9442138671875	-62.47187042236328	-700.056640625	1069.460083007812	13.51075267791748	-476.9387512207031	1264.404663085938	145.6987152099609	-710.7646484375	1203.263061523438	10.91729068756104	-655.8093872070312	1467.842163085938	43.72159957885742	-500.66650390625	1379.247680664062	129.4544372558594	-749.5771484375	1331.096801757812	76.36495208740234	-630.1949462890625	1431.09033203125	-54.30849456787109	-507.9459838867188	1435.719970703125	-72.916748046875	-502.2539672851562	1315.728515625	-160.7636260986328	-497.4425048828125	1105.6669921875	-197.3988647460938	-586.0360107421875	1091.95166015625	-138.1616058349609	-445.6535949707031	857.543212890625	-128.0838470458984	-482.7286376953125	853.55029296875	-203.2706298828125	-483.0316162109375	995.9095458984375	-207.68701171875	-447.5752258300781	670.0890502929688	-117.8717575073242	-457.4003601074219	770.630615234375	-194.6375274658203	-427.4533386230469	775.0709228515625	-129.9234771728516	-688.0849609375	1430.903564453125	225.3160400390625	-732.6538696289062	1363.572509765625	275.5598754882812	-773.41796875	1097.58642578125	295.7987976074219	-709.6236572265625	1075.064819335938	222.3428192138672	-583.9227294921875	884.3291015625	351.6305236816406	-662.6212158203125	847.737060546875	359.615234375	-755.095703125	1016.479736328125	314.1060791015625	-520.4496459960938	706.646728515625	355.7012634277344	-536.800537109375	794.1332397460938	370.257568359375	-610.6043701171875	771.7525634765625	387.6732482910156	-660.5079956054688	1626.740112304688	91.88600158691406	-454.454345703125	1688.730834960938	144.8301086425781	-555.7559814453125	1673.135986328125	218.6350250244141	-557.859619140625	1649.994140625	4.373095989227295	-518.1472778320312	941.2525634765625	-81.66366577148438	-732.907470703125	944.6045532226562	190.4562835693359	-616.5764770507812	959.1966552734375	241.2641296386719	-458.8689575195312	954.307861328125	25.90978622436523	-348.072265625	527.8406372070312	87.78945922851562	-390.8950805664062	643.21484375	0.6503244638442993	-261.4259338378906	56.84576034545898	79.85586547851562	-299.7049865722656	287.4148559570312	69.24622344970703	-157.2647857666016	129.1911468505859	237.4740447998047	-223.8396911621094	106.5759658813477	233.6763610839844	-172.0522155761719	82.28541564941406	137.7065734863281	-351.763671875	38.93913269042969	86.46285247802734	-672.0405883789062	499.4223022460938	143.4248962402344	-668.5653076171875	761.758544921875	218.7141723632812	-775.8714599609375	40.87844467163086	12.87450695037842	-695.891357421875	377.7946166992188	114.7754364013672	-557.0140991210938	40.85242080688477	41.54637908935547	-604.9653930664062	49.48722839355469	-12.16145610809326	-664.0444946289062	44.35337066650391	67.03988647460938	-802.6204223632812	49.07156753540039	-55.06166458129883	
257	2.56	-738.4815673828125	1012.986083984375	92.79349517822266	-649.1651611328125	996.1865234375	-59.08293151855469	-691.8430786132812	1067.947143554688	16.30028343200684	-470.1011352539062	1262.836791992188	150.4932250976562	-702.5728149414062	1201.721557617188	13.64825916290283	-648.0023193359375	1466.337524414062	47.01992416381836	-493.5822143554688	1377.672485351562	133.9923095703125	-742.0831298828125	1329.629638671875	78.83809661865234	-621.639892578125	1429.500122070312	-50.76555633544922	-499.2582092285156	1434.028442382812	-68.45453643798828	-493.2561645507812	1314.089721679688	-156.3217468261719	-488.5082702636719	1104.162719726562	-193.4380340576172	-577.2955322265625	1090.335571289062	-134.5153503417969	-436.9942626953125	856.0233154296875	-123.8980484008789	-473.6648254394531	852.0615234375	-199.3107604980469	-473.9968872070312	994.3967895507812	-203.7305145263672	-439.0424194335938	668.5831298828125	-113.7739791870117	-448.4167175292969	769.1317749023438	-190.5827178955078	-418.9174194335938	773.5111694335938	-125.6781539916992	-681.7535400390625	1429.380737304688	228.3639068603516	-726.7518310546875	1362.033081054688	278.2353820800781	-767.7247924804688	1096.067993164062	298.5974426269531	-703.5570068359375	1073.474365234375	225.4785614013672	-577.9335327148438	883.3133544921875	355.3564147949219	-656.5632934570312	846.4981689453125	363.0912170410156	-749.2893676757812	1014.974975585938	317.1321411132812	-514.0452880859375	705.7559204101562	359.8901672363281	-530.8028564453125	793.2284545898438	374.3409729003906	-604.4501342773438	770.7001342773438	391.4240112304688	-652.8951416015625	1625.217041015625	95.23746490478516	-447.1547241210938	1687.0234375	149.8324432373047	-549.0428466796875	1671.507446289062	222.8477325439453	-549.488525390625	1648.483642578125	8.540328979492188	-508.5161437988281	939.6511840820312	-76.92752075195312	-726.255615234375	943.1092529296875	193.2146606445312	-610.2182006835938	957.7478637695312	245.2554473876953	-450.5287780761719	952.872314453125	31.37209510803223	-342.3734130859375	526.1593627929688	92.98267364501953	-383.9505004882812	640.3710327148438	4.760035514831543	-246.1925354003906	57.49436569213867	94.80908203125	-289.2343139648438	287.3452453613281	79.07395935058594	-145.1306457519531	134.5498504638672	252.4645843505859	-211.30224609375	110.8597946166992	248.2681274414062	-157.9628753662109	85.63507080078125	153.3246459960938	-336.2711791992188	38.18283843994141	100.5955123901367	-666.5298461914062	498.1889953613281	145.9994659423828	-662.5678100585938	760.3275756835938	221.7878112792969	-775.6380615234375	41.33577728271484	12.53086757659912	-691.4489135742188	376.7137756347656	116.7345733642578	-556.890380859375	40.72973251342773	41.54537963867188	-604.609375	49.27439498901367	-12.25270938873291	-663.892578125	44.36747360229492	66.87544250488281	-802.3075561523438	50.07990264892578	-55.39199829101562	
258	2.57	-730.8736572265625	1011.202392578125	95.40032958984375	-639.9520874023438	994.5274658203125	-55.62360382080078	-683.5933837890625	1066.474487304688	19.19948768615723	-463.1699829101562	1261.292602539062	155.317626953125	-694.2951049804688	1200.222778320312	16.47103309631348	-640.1181640625	1464.87060546875	50.36083602905273	-486.4042663574219	1376.11962890625	138.5633697509766	-734.5025634765625	1328.201416015625	81.38095855712891	-613.0023803710938	1427.95263671875	-47.16896820068359	-490.5031433105469	1432.373779296875	-63.95110321044922	-484.1732788085938	1312.47998046875	-151.8294067382812	-479.3908081054688	1102.68505859375	-189.4198760986328	-568.401123046875	1088.721313476562	-130.8816986083984	-428.1378479003906	854.5478515625	-119.6352691650391	-464.4063415527344	850.5975952148438	-195.2727661132812	-464.7801513671875	992.9140625	-199.7024688720703	-430.2261962890625	667.1210327148438	-109.5695190429688	-439.1976318359375	767.6660766601562	-186.436767578125	-410.1318054199219	772	-121.3402404785156	-675.3071899414062	1427.894165039062	231.4533233642578	-720.737060546875	1360.524291992188	280.9447021484375	-761.8998413085938	1094.594116210938	301.452880859375	-697.3829956054688	1071.911254882812	228.6485443115234	-571.914306640625	882.2510375976562	359.0784301757812	-650.4879150390625	845.2691650390625	366.6243896484375	-743.3777465820312	1013.517028808594	320.2104187011719	-507.6971435546875	704.793701171875	364.1077270507812	-524.8510131835938	792.2693481445312	378.4764099121094	-598.3255615234375	769.6256103515625	395.2334899902344	-645.2311401367188	1623.747436523438	98.59851837158203	-439.8036499023438	1685.363891601562	154.8701782226562	-542.2694702148438	1669.915893554688	227.0911560058594	-541.0259399414062	1647.01318359375	12.73889541625977	-498.9562377929688	938.161376953125	-72.19585418701172	-719.526123046875	941.545654296875	196.0299682617188	-603.837158203125	956.248291015625	249.2769317626953	-442.2284240722656	951.4749755859375	36.80620574951172	-336.2439270019531	524.69775390625	98.32827758789062	-376.7476196289062	637.93359375	9.301559448242188	-233.5945129394531	57.90552520751953	108.3643112182617	-279.8571472167969	287.1085510253906	88.30097961425781	-134.6860046386719	138.5488586425781	265.7134704589844	-200.5534362792969	114.1536102294922	261.3617858886719	-146.2079162597656	88.05130767822266	167.1816864013672	-323.4338684082031	37.70537185668945	113.6799011230469	-660.6698608398438	496.8804931640625	148.6247863769531	-656.3764038085938	758.8295288085938	224.8607482910156	-775.3524780273438	41.91292572021484	12.11485767364502	-686.6793212890625	375.5766296386719	118.7018432617188	-556.7442016601562	40.58992767333984	41.51892471313477	-604.2112426757812	49.03994750976562	-12.38498115539551	-663.7124633789062	44.39834976196289	66.65788269042969	-801.9163818359375	51.26239013671875	-55.78703689575195	
